PathFileType	4	(X/Y/Z)	C:/Users/beibeiliu/ov580/test_trc/User1\sequence.4_training_dense_right.trc
DataRate	CameraRate	NumFrames	NumMarkers	Units	OrigDataRate	OrigDataStartFrame	OrigNumFrames
120	120	12	19	mm	120	1	50
Frame#	Time	ThumbCMC			ThumbMCP			ThumbIP			ThumbTip			IndexMCP			IndexPIP			IndexTip			MiddleMCP			MiddlePIP			MiddleTip			RingMCP			RingPIP			RingTip			PinkyMCP			PinkyPIP			PinkyTip			BackHand1			BackHand2			BackHand3	
		X0	Y0	Z0	X1	Y1	Z1	X2	Y2	Z2	X3	Y3	Z3	X4	Y4	Z4	X5	Y5	Z5	X6	Y6	Z6	X7	Y7	Z7	X8	Y8	Z8	X9	Y9	Z9	X10	Y10	Z10	X11	Y11	Z11	X12	Y12	Z12	X13	Y13	Z13	X14	Y14	Z14	X15	Y15	Z15	X16	Y16	Z16	X17	Y17	Z17	X18	Y18	Z18	
0	0	125.778	54.2199	96.504	98.733	45.6922	71.6973	88.9679	40.1643	44.7155	80.9325	31.3185	23.7766	152.644	64.4236	14.8032	153.034	56.0335	-17.0054	147.607	44.4689	-38.5797	179.556	49.5179	8.88578	174.886	41.3027	-22.3437	166.761	17.5466	-46.7371	192.229	34.0409	15.3692	191.131	24.113	-15.1564	182.758	4.32102	-36.2584	201.237	14.9689	33.6647	205.474	7.22714	10.6432	203.937	-0.170321	-12.8541	190.823	43.4473	72.5872	191.42	47.3983	107.804	163.418	65.4242	88.6786	
1	0.00833333	123.798	55.4864	91.1613	102.283	44.0528	72.5501	90.4769	39.7562	43.0681	77.2657	31.0129	25.257	151.859	63.8457	14.4464	151.802	58.6095	-17.5347	149.143	40.0891	-40.9232	175.979	51.5322	9.05422	173.226	39.7924	-26.0117	165.648	17.0012	-48.6029	190.332	35.6549	12.7514	194.651	22.5377	-12.1121	181.372	5.55805	-36.0278	200.008	15.0671	34.3031	205.211	6.72178	9.53111	198.711	0.584027	-15.5631	189.747	43.1952	72.3523	190.586	46.5	106.97	163.126	66.928	85.2427	
2	0.0166667	122.248	55.4217	96.1724	102.617	43.4886	69.8501	88.9165	39.7611	43.7509	80.5375	30.8766	24.0692	152.219	63.3126	13.9169	151.301	59.8024	-14.2529	150.323	41.1143	-38.3184	176.584	50.2936	3.89196	173.317	39.7048	-25.7289	165.558	15.2988	-49.3614	192.46	33.6019	14.4535	191.538	24.7652	-12.5158	182.005	4.93662	-34.4849	200.868	15.6168	32.8338	204.877	6.35386	12.2231	200.716	1.41795	-12.2947	190.588	42.7067	71.1359	193.691	45.5474	104.207	164.901	65.9184	86.6029	
3	0.025	121.567	55.8331	93.0829	99.9972	44.0162	72.3113	89.64	39.3066	42.337	78.2119	29.8616	22.8875	150.079	64.7738	15.2515	150.621	57.9142	-18.1309	150.519	39.7765	-39.6601	179.396	48.2092	6.51619	175.794	36.5329	-25.9931	167.553	14.7649	-47.4218	191.89	35.3307	12.5341	192.196	22.9792	-16.4274	180.928	5.79811	-35.3959	200.498	15.471	33.916	204.286	7.79297	13.8421	200.975	-0.816828	-15.7441	189.121	45.5956	70.9651	191.183	44.2515	106.612	161.411	67.0069	82.8481	
4	0.0333333	121.49	57.5422	91.7467	101.499	44.3784	71.2835	89.4935	39.892	43.8004	79.6422	29.7096	22.4393	152.917	64.0443	11.8473	151.75	59.7887	-15.5156	150.799	39.6215	-38.5532	175.834	51.5623	9.02944	174.021	37.7957	-25.8753	166.735	19.0457	-47.5862	190.681	34.8628	17.5032	189.973	24.4442	-16.9039	181.592	5.87329	-37.3456	201.132	13.8197	36.7728	204.648	6.76051	9.35073	200.681	-1.46702	-15.2932	189.417	44.1183	74.2288	194.97	44.185	106.829	166.281	63.9795	86.8698	
5	0.0416667	122.241	56.7087	90.2992	103.491	43.5749	70.3838	91.2154	38.3823	47.6882	80.2863	29.8507	25.7856	150.455	65.0648	12.4725	154.991	55.446	-17.1242	146.471	41.6119	-42.5118	178.401	50.062	8.96715	177.684	38.393	-23.0304	167.144	19.8908	-46.3109	191.141	35.6506	13.6368	193.996	23.901	-14.1663	181.392	8.42921	-33.8786	203.501	13.2363	33.2557	204.425	8.99067	12.2499	202.076	-2.24312	-17.2942	193.201	41.3483	71.4567	192.466	44.8689	103.758	166.497	64.3196	82.7336	
6	0.05	123.636	55.0963	90.807	99.5337	45.5957	71.2539	86.394	40.6173	44.4067	76.0124	30.0028	25.0983	151.379	64.6673	11.9507	150.987	59.0464	-18.8721	150.738	38.8799	-40.7456	176.506	52.8034	6.82201	174.942	39.6264	-24.1106	163.725	15.6118	-46.0676	194.674	34.4753	13.5947	193.392	22.3794	-14.925	180.571	3.37594	-32.2405	201.367	16.115	34.94	205.589	5.13212	9.04537	195.22	-5.36454	-17.4421	190.522	45.1224	73.8034	189.892	46.4784	105.573	163.641	65.2931	82.959	
7	0.0583333	121.806	54.9512	94.7189	99.9933	44.7841	70.1018	88.2183	39.5362	44.4026	78.4046	29.4939	21.3852	149.855	67.8247	11.4669	152.852	58.3108	-19.7	148.979	42.3384	-44.2139	176.856	51.2751	4.87011	170.772	36.2603	-25.3487	153.609	4.03776	-38.7471	193.266	33.32	11.9071	188.3	17.263	-15.8447	168.117	-1.58636	-25.3989	201.408	17.1843	35.3748	201.317	7.72893	9.29357	183.355	-9.60625	-12.9479	190.679	47.4338	69.1592	190.57	47.2709	107.189	161.444	67.4997	85.8443	
8	0.0666667	124.915	54.1384	90.5094	101.299	42.2472	69.7135	92.9303	36.2183	44.9283	82.9929	25.3198	21.6899	150.659	69.5753	12.7086	151.797	66.7669	-16.5081	150.874	52.8405	-39.494	173.222	49.4886	5.69643	158.464	26.6487	-21.3734	137.547	2.55715	-16.3998	185.283	33.0929	13.9957	172.93	11.9129	-10.0829	148.014	-12.2982	-1.22046	198.798	14.8429	32.0431	186.358	1.87148	8.56939	162.116	-15.4804	6.52028	194.007	45.3092	71.0137	193.419	45.2129	104.59	164.39	65.6311	87.7229	
9	0.075	121.818	56.3834	96.9429	101.078	40.1918	68.688	94.4519	33.1103	43.3079	90.0735	20.5242	17.9823	148.408	72.35	14.9639	144.683	73.1164	-9.98718	144.853	62.5322	-39.8869	157.843	47.1255	3.64892	137.093	19.2515	-7.62169	118.866	2.05968	16.302	173.06	25.9276	14.4908	150.057	2.7062	4.31465	131.265	-9.009	30.7109	188.933	9.65437	29.7487	165.467	-4.38607	16.7646	139.459	-8.26582	35.4371	186.531	46.5356	72.7846	191.77	44.7126	103.503	166.292	67.5469	89.8853	
10	0.0833333	122.381	58.7246	93.798	97.1313	43.257	65.3621	92.0039	31.6355	39.315	96.499	15.9299	16.3957	140.92	77.1171	17.8526	137.63	77.0192	-13.3862	141.94	69.1779	-36.7647	147.94	42.8732	6.84372	127.179	15.8269	3.79099	116.3	6.42338	39.7485	159.461	20.0492	15.1769	135.548	-1.05463	20.2157	126.302	-2.32684	52.8562	176.693	7.37028	29.54	149.824	-4.96924	29.4995	135.204	0.100169	61.1002	184.161	49.1734	71.7146	189.518	48.694	105.654	161.814	68.9707	89.091	
11	0.0916667	118.383	59.3823	97.5942	99.1227	43.6887	68.0941	93.2676	31.5188	36.4187	99.4067	12.7559	15.038	135.852	78.1139	14.2692	135.812	75.6998	-13.2898	135.94	70.3748	-39.9081	141.498	44.3438	10.7641	119.324	13.8251	13.6609	114.469	12.503	51.8242	152.87	19.2783	18.6716	130.91	-1.82532	31.1414	126.823	5.02009	65.6951	165.054	8.75283	29.8084	142.431	-6.20516	41.6356	138.689	3.60513	71.7612	183.427	49.5644	64.8826	186.572	49.7418	102.676	156.513	73.1361	84.3221	
